<svg xmlns="http://www.w3.org/2000/svg" viewBox="0 0 512 512" role="img" aria-label="Moyai">
  <rect width="512" height="512" rx="120" fill="#24232b"/>
  <path d="M175 89 309 83 343 134 328 232 377 275Q386 285 375 294L335 304 331 383 284 429 157 393 145 291 122 222 145 129Z" fill="#d9d2e9"/>
  <path d="m175 89-30 40-23 93 23 69 12 102 49-28-19-113 13-124Z" fill="#ada0c8"/>
  <path d="m309 83 34 51-15 98-30-13 13-67-111-24-25-39Z" fill="#eeeaf6"/>
  <path d="m298 219 30 13 49 43q9 10-2 19l-40 10-3-27-39-13Z" fill="#b8aacf"/>
  <path d="m206 365 78 22 47-4-47 46-127-36Z" fill="#8e7cae"/>
  <path d="m267 190 57 3-5 30-29-9-20 7Z" fill="#24232b"/>
  <path d="m286 327 48-2-1 15-47 4Z" fill="#24232b"/>
  <path d="m279 354 53-8-1 15-47 11Z" fill="#c4b7d7"/>
  <!-- LiteLLM train badge, matching the Moyai launch artwork. -->
  <g transform="translate(181 202) scale(.2164)" fill="#66528a">
    <path d="M242.87,209.13c6.4-.87,6.12-10.2.34-10.9-5.4-.66-11.91.68-17.38-.22l-41.77.24c-5.96,1.84-5.31,10.07.89,10.9l57.93-.03Z"/>
    <path d="M253.87,162.08c-28.91-12.54-59.78-21.51-90.25-29.59-27.13-7.2-57.39-13.98-85.21-17.64-26.19-3.44-52.09-2.88-78.43-2.77v5.37c29.74-.44,58.67.43,88.13,4.99,39.72,6.15,81.32,16.19,119.67,28.09,22.29,6.91,43.98,15.49,65,25.57v55.83c10.24-1.63,25.63-7.2,32.28-16.62v-20.22c-8.9-14.11-37.09-26.88-51.19-33Z"/>
    <path d="M12.02,95.09c-.06.1-.12.19-.17.29,19.18.33,38.42,1.37,57.45,3.99,30.36,4.19,62.08,11.27,91.45,19.9,14.76,4.34,28.83,10.9,44.53,10.11,3.39-.17,6.78-.9,10.15-1.23l-.46-.6c-18.43-13.31-43.4-28.34-74.94-39.94C83.31,66.74,32.26,66.86-.02,69.96v26.07c2.85-.22,5.7-.45,8.53-.8,1.15-.01,2.33-.05,3.51-.13Z"/>
    <path d="M274.09.16H30.95C13.84.16-.02,14.03-.02,31.13v32.13c22.57-3.29,54.41-5.06,92.09,2.42,1.24.25,5.24,1.07,10.45,2.29,45.14,10.61,85.77,33.98,124,59.25,18.67,12.34,38.24,25.39,55.94,39.03,7.32,5.63,16.26,12.38,22.61,20.24V31.13c0-17.11-13.87-30.97-30.97-30.97Z"/>
    <path d="M75.33,201.85h5.25v.03h46.87l-39.45-54.76c-.43-.72-3.16-2.29-3.78-2.29h-3.9v.14h-4.98v-.08H-.02v57.17h75.36v-.23Z"/>
    <path d="M-.02,244.98v29.3c0,17.11,13.87,30.97,30.97,30.97h243.14c17.11,0,30.97-13.87,30.97-30.97v-48.71c-14.27,15.64-42.91,18.13-62.15,19.41H-.02Z"/>
    <path d="M130.32,208.26c-16.58.06-33.16-.01-49.74-.04v.22h-35.08c-.68.09-1.39.15-1.78,0H-.02v8.01h136.57c-1.21-1.4-4.72-7.9-6.23-8.18Z"/>
  </g>
</svg>
